<?xml version="1.0" encoding="utf-8"?>
<svg version="1.1" xmlns:xlink="http://www.w3.org/1999/xlink" width="24px" height="24px" xmlns="http://www.w3.org/2000/svg">
  <g transform="matrix(1 0 0 1 -94 -208 )">
    <path d="M 23.1417425227569 8.00520156046815  C 23.5578673602081 8.10923276983095  23.8283485045513 8.37451235370611  23.9531859557867 8.80104031209362  C 24.0572171651495 9.23797139141743  23.9531859557867 9.60208062418724  23.6410923276983 9.89336801040309  L 21.4876462938882 12  L 23.6410923276983 14.1066319895969  C 23.9531859557867 14.3979193758128  24.0572171651495 14.7620286085826  23.9531859557867 15.1989596879064  C 23.8283485045513 15.6254876462939  23.5578673602081 15.890767230169  23.1417425227569 15.9947984395318  L 20.2080624187256 16.7438231469441  L 21.0351105331599 19.6462938881664  C 21.1599479843953 20.072821846554  21.0611183355006 20.4369310793238  20.738621586476 20.7386215864759  C 20.4369310793238 21.0611183355006  20.072821846554 21.1599479843953  19.6462938881664 21.0351105331599  L 16.7438231469441 20.2080624187256  L 15.9947984395319 23.1417425227568  C 15.8907672301691 23.5578673602081  15.625487646294 23.8283485045513  15.1989596879064 23.9531859557868  C 15.074122236671 23.9739921976593  14.9752925877763 23.9843953185956  14.9024707412223 23.9843953185956  C 14.5799739921977 23.9843953185956  14.3146944083226 23.8699609882965  14.106631989597 23.6410923276983  L 12 21.4876462938882  L 9.89336801040304 23.6410923276983  C 9.60208062418724 23.9531859557868  9.23797139141743 24.0572171651496  8.80104031209362 23.9531859557868  C 8.37451235370622 23.8387516254876  8.1092327698309 23.5682704811443  8.00520156046809 23.1417425227568  L 7.25617685305588 20.2080624187256  L 4.35370611183362 21.0351105331599  C 3.92717815344599 21.1599479843953  3.56306892067619 21.0611183355006  3.26137841352397 20.7386215864759  C 2.93888166449938 20.4369310793238  2.84005201560467 20.072821846554  2.96488946684008 19.6462938881664  L 3.7919375812744 16.7438231469441  L 0.858257477243114 15.9947984395318  C 0.442132639791907 15.890767230169  0.171651495448714 15.6254876462939  0.0468140442133063 15.1989596879064  C -0.0572171651494955 14.7620286085826  0.0468140442133063 14.3979193758128  0.358907672301712 14.1066319895969  L 2.51235370611175 12  L 0.358907672301712 9.89336801040309  C 0.0468140442133063 9.60208062418724  -0.0572171651494955 9.23797139141743  0.0468140442133063 8.80104031209362  C 0.171651495448714 8.37451235370611  0.442132639791907 8.10923276983095  0.858257477243114 8.00520156046815  L 3.7919375812744 7.25617685305593  L 2.96488946684008 4.35370611183356  C 2.84005201560467 3.92717815344605  2.93888166449938 3.56306892067619  3.26137841352397 3.26137841352408  C 3.56306892067619 2.93888166449938  3.92717815344599 2.84005201560467  4.35370611183362 2.96488946684008  L 7.25617685305588 3.7919375812744  L 8.00520156046809 0.858257477243171  C 8.1092327698309 0.431729518855661  8.37451235370622 0.166449934980506  8.80104031209362 0.0624187256177038  C 9.22756827048124 -0.0624187256177038  9.59167750325105 0.0364109232770033  9.89336801040304 0.358907672301712  L 12 2.52795838751626  L 14.106631989597 0.358907672301712  C 14.408322496749 0.0468140442132494  14.7724317295188 -0.0520156046814009  15.1989596879064 0.0624187256177038  C 15.625487646294 0.166449934980506  15.8907672301691 0.431729518855661  15.9947984395319 0.858257477243171  L 16.7438231469441 3.7919375812744  L 19.6462938881664 2.96488946684008  C 20.072821846554 2.84005201560467  20.4369310793238 2.93888166449938  20.738621586476 3.26137841352408  C 21.0611183355006 3.56306892067619  21.1599479843953 3.92717815344605  21.0351105331599 4.35370611183356  L 20.2080624187256 7.25617685305593  L 23.1417425227569 8.00520156046815  Z M 17.7730283892913 9.62471207899102  C 17.924548946849 9.46718103184446  18 9.27034776025641  18 9.03405118953657  C 18 8.78905658553873  17.924548946849 8.58787429731166  17.773183002105 8.43050432485546  C 17.773183002105 8.43050432485546  16.6268836003378 7.24934362063686  16.6268836003378 7.24934362063686  C 16.4674777892747 7.08311454021231  16.2782317051415 7  16.0600730248213 7  C 15.8417597316873 7  15.6528228731818 7.08311454021231  15.4932624493049 7.24934362063686  C 15.4932624493049 7.24934362063686  10.3537779046396 12.5905803521093  10.3537779046396 12.5905803521093  C 10.3537779046396 12.5905803521093  7.50689216350906 9.62471207899102  7.50689216350906 9.62471207899102  C 7.34733173963195 9.45848299856641  7.15839488112647 9.37536845835416  6.93992697517865 9.37536845835416  C 6.72145906923083 9.37536845835416  6.5326768235393 9.45848299856641  6.37296178684846 9.62471207899102  C 6.37296178684846 9.62471207899102  5.226662385081 10.8057117085193  5.226662385081 10.8057117085193  C 5.07545105315103 10.9632427556658  5 11.1645861185832  5 11.409580722581  C 5 11.6458772933009  5.07560566596499 11.8423884155083  5.226662385081 12.0000805373452  C 5.226662385081 12.0000805373452  9.78681271630921 16.7504953046728  9.78681271630921 16.7504953046728  C 9.94637314018632 16.9167243850974  10.1353099986918 17  10.3536232918257 17  C 10.5804402897206 17  10.7735516941996 16.9167243850974  10.9331121180767 16.7504953046728  C 10.9331121180767 16.7504953046728  17.7730283892913 9.62471207899102  17.7730283892913 9.62471207899102  Z " fill-rule="nonzero" fill="#28a0cb" stroke="none" transform="matrix(1 0 0 1 94 208 )" />
  </g>
</svg>